<?xml version="1.0" encoding="UTF-8"?>
<svg id="Layer_2" data-name="Layer 2" xmlns="http://www.w3.org/2000/svg" viewBox="0 0 174.39 160.66">
  <defs>
    <style>
      .cls-1 {
        fill: #efe4cb;
      }

      .cls-2 {
        fill: #755541;
      }

      .cls-3 {
        fill: #393031;
      }

      .cls-4 {
        fill: #f4c2da;
      }
    </style>
  </defs>
  <g id="Layer_2-2" data-name="Layer 2">
    <g>
      <path class="cls-3" d="M167.01,56.63s7.83-3.43,7.36-22.98c0,0-7.72-3.32-20.26,7.54,0,0-3.9.76-6.88-3.29,0,0-5.35-17.6-25.25-28.72,0,0-9.55-6.21-23.48-6.77,0,0-32.61-10-56.82,10.72,0,0-30.79,11.97-36.94,44.13,0,0-1.73,13.11-3.63,16.17,0,0-5.69,26.75,8.82,45.64,0,0,10.58,22.06,26.6,30.68,0,0,25.27,17.57,62.09,8.1,0,0,34.66-10.77,35.05-31.98,0,0,19.85,13.52,30.22-6.13,0,0,9.2-21.7,3.13-63.1Z"/>
      <g>
        <path class="cls-2" d="M98.6,97.74s16.34,27.38,9.15,50.27c0,0-.85,3.5,7.94-2.81,0,0,14.14-9.36,13.56-20.15,0,0-.76-13.66-23.88-26.55,0,0-5.81-4.66-6.77-.75Z"/>
        <path class="cls-2" d="M16.44,121.69c23.22,38.36,68.84,34.76,68.84,34.76,16.54-.79,18.24-9.06,18.24-9.06v-10.37c.13-8.79-13.65-18.77-13.65-18.77l-27.3-12.99s-4.25-.88-7.39,2.6c0,0-21.74,11.51-35.33,11.18,0,0-5.18-.26-3.42,2.65Z"/>
        <path class="cls-2" d="M9.35,69.6s9.04,24.01,42.88,32.66c0,0,3.88,1.32,1.37,2.91-22.03,13.93-41.14,9.28-41.14,9.28-15.14-16.07-5.43-44.85-5.43-44.85,0,0,1.72-1.37,2.32,0Z"/>
        <path class="cls-2" d="M37.01,19.86s-16.87,5.34-27.41,32.14c0,0-.52,9.14,1.35,14.55,0,0,10.16,25.76,42.38,33.2,4.99,1.15-1.1-5.68-1.1-5.68-25.09-37.29-12.92-72.71-12.92-72.71,0,0,1.06-3.06-2.3-1.5Z"/>
        <path class="cls-2" d="M90.76,4.89s-32.92-7.76-47.34,14.52c0,0-15.7,46.33,15.17,77.76,4.12,4.2,2.78-5.09,2.78-5.09C47.85,28.69,89.55,7.27,89.55,7.27c0,0,4.41-1.8,1.21-2.38Z"/>
        <path class="cls-2" d="M95.41,102.26c-26.98,12.15-32.22-12.4-32.22-12.4C53.37,20.86,98.6,7.08,98.6,7.08c0,0,24.99-1.84,42.38,28.79,0,0-16.59-1.12-23.45,3.35,0,0-3.57,3.15-7.24-1.36,0,0-10.72-6.39-16.55-6.21,0,0-3.89-.12-3.66,5.38l-.25,13.89s1.74,8.45,6.95,13.67c0,0,1.43.3-1.34,6.79,0,0-1.53,6.49.66,13.41,0,0,2.41,6.27-.66,8.02,0,0-1.97,3.13-.29,5.83,0,0,1.45,3.08.25,3.62Z"/>
        <path class="cls-2" d="M126.83,71.28c8.9,5.06,9.73,20.97,9.73,20.97,1.25,16.12,12.76,22.54,12.76,22.54,14.49,9.4,14.2-13.33,14.2-13.33l1.15-30.79c-.49-12.17-6.08-18.69-6.08-18.69-19.65-23.48-41.56-6.78-41.56-6.78l2.13,5.34s-2.13,15.17,7.68,20.75Z"/>
      </g>
      <g>
        <ellipse class="cls-4" cx="17.15" cy="50.93" rx="3.46" ry="1.94" transform="translate(-33.76 33.73) rotate(-52.72)"/>
        <ellipse class="cls-4" cx="20.09" cy="63.27" rx="3.46" ry="1.94" transform="translate(-42.42 40.93) rotate(-52.72)"/>
        <ellipse class="cls-4" cx="27.18" cy="75.27" rx="3.1" ry="1.74" transform="translate(-49.17 51.3) rotate(-52.72)"/>
        <ellipse class="cls-4" cx="34.89" cy="84.14" rx="2.36" ry="1.33" transform="translate(-56.02 78.48) rotate(-63.92)"/>
      </g>
      <g>
        <ellipse class="cls-4" cx="115.56" cy="127.48" rx="3.13" ry="1.41" transform="translate(-51.98 88.3) rotate(-34.65)"/>
        <ellipse class="cls-4" cx="119.81" cy="134.56" rx="3.13" ry="1.41" transform="translate(-55.26 91.98) rotate(-34.65)"/>
        <ellipse class="cls-4" cx="119.81" cy="119.03" rx="2.51" ry="1.41" transform="translate(-46.43 89.22) rotate(-34.65)"/>
        <ellipse class="cls-4" cx="111.72" cy="111.58" rx="1.9" ry="1.41" transform="translate(-43.62 83.3) rotate(-34.65)"/>
      </g>
      <g>
        <ellipse class="cls-4" cx="36.1" cy="124.58" rx="3.43" ry="1.41" transform="translate(-57.45 34.74) rotate(-30)"/>
        <ellipse class="cls-4" cx="52.05" cy="127.05" rx="3.43" ry="1.41" transform="translate(-74.59 74.01) rotate(-45)"/>
        <ellipse class="cls-4" cx="75.02" cy="146.06" rx="3.43" ry="1.41" transform="translate(-85.11 109.75) rotate(-50.04)"/>
        <ellipse class="cls-4" cx="88.35" cy="144.92" rx="3.43" ry="1.41" transform="translate(-79.47 119.55) rotate(-50.04)"/>
        <ellipse class="cls-4" cx="69.23" cy="135.16" rx="3.36" ry="1.45" transform="translate(-78.83 101.41) rotate(-50.04)"/>
        <ellipse class="cls-4" cx="57.75" cy="141.46" rx="2.48" ry="1.31" transform="translate(-87.76 94.87) rotate(-50.04)"/>
        <ellipse class="cls-4" cx="84.8" cy="134.23" rx="2.48" ry="1.31" transform="translate(-72.55 113.01) rotate(-50.04)"/>
        <ellipse class="cls-4" cx="43.92" cy="136.4" rx="3.31" ry="1.64" transform="translate(-62.32 40.23) rotate(-30)"/>
        <ellipse class="cls-4" cx="66.21" cy="123.53" rx="3.31" ry="1.64" transform="translate(-67.96 83) rotate(-45)"/>
      </g>
      <g>
        <ellipse class="cls-4" cx="14.64" cy="105.23" rx="1.94" ry="3.46" transform="translate(-11.08 2.15) rotate(-6.09)"/>
        <ellipse class="cls-4" cx="25.7" cy="105.74" rx="1.39" ry="2.47" transform="translate(-11.07 3.32) rotate(-6.09)"/>
        <ellipse class="cls-4" cx="37.01" cy="105.5" rx="1.09" ry="1.94" transform="translate(-10.98 4.52) rotate(-6.09)"/>
      </g>
      <g>
        <ellipse class="cls-4" cx="55.96" cy="15.43" rx="3.46" ry="1.94" transform="translate(-1.93 11.14) rotate(-11.18)"/>
        <ellipse class="cls-4" cx="51.69" cy="27.66" rx="3.46" ry="1.94" transform="translate(-4.38 10.55) rotate(-11.18)"/>
        <ellipse class="cls-4" cx="48.22" cy="42.45" rx="3.16" ry="1.94" transform="translate(-7.32 10.16) rotate(-11.18)"/>
        <ellipse class="cls-4" cx="48.22" cy="56.22" rx="2.15" ry="1.24" transform="translate(-9.99 10.42) rotate(-11.18)"/>
      </g>
      <g>
        <ellipse class="cls-4" cx="125.94" cy="28.34" rx="3.46" ry="1.94" transform="translate(-2.19 44.02) rotate(-19.66)"/>
        <ellipse class="cls-4" cx="108.86" cy="18.53" rx="3.46" ry="1.94" transform="translate(.11 37.7) rotate(-19.66)"/>
        <ellipse class="cls-4" cx="83.98" cy="29.67" rx="3.46" ry="1.94" transform="translate(-5.09 29.98) rotate(-19.66)"/>
        <ellipse class="cls-4" cx="73.21" cy="48.27" rx="3.46" ry="1.94" transform="translate(-13.37 62.22) rotate(-42.56)"/>
        <ellipse class="cls-4" cx="75.78" cy="60.72" rx="2.93" ry="1.53" transform="translate(-.79 120.45) rotate(-76.66)"/>
        <ellipse class="cls-4" cx="72.82" cy="84.38" rx="2.93" ry="1.53" transform="translate(-26.09 135.77) rotate(-76.66)"/>
        <ellipse class="cls-4" cx="85.5" cy="84.38" rx="1.53" ry="2.93"/>
        <ellipse class="cls-4" cx="79.13" cy="95.33" rx="1.53" ry="2.93" transform="translate(-33.3 43.28) rotate(-25.46)"/>
        <ellipse class="cls-4" cx="83.87" cy="73.85" rx="2.93" ry="1.53" transform="translate(-7.34 138.41) rotate(-76.66)"/>
        <ellipse class="cls-4" cx="68.25" cy="70.97" rx="2.93" ry="1.53" transform="translate(-16.55 121) rotate(-76.66)"/>
        <ellipse class="cls-4" cx="83.37" cy="40.94" rx="2.9" ry="1.63" transform="translate(3.66 88.62) rotate(-57.04)"/>
        <ellipse class="cls-4" cx="86.23" cy="58.56" rx="2.44" ry="1.37" transform="translate(2.83 121.08) rotate(-71.04)"/>
        <ellipse class="cls-4" cx="96.07" cy="17.59" rx="3.46" ry="1.94" transform="translate(-.32 33.35) rotate(-19.66)"/>
        <ellipse class="cls-4" cx="113.7" cy="30.51" rx="2.38" ry="1.33" transform="translate(-3.64 40.03) rotate(-19.66)"/>
        <ellipse class="cls-4" cx="98.99" cy="25.42" rx="2.38" ry="1.33" transform="translate(2.55 59.26) rotate(-33.74)"/>
      </g>
      <g>
        <ellipse class="cls-4" cx="151.35" cy="98.15" rx="3.04" ry="1.45" transform="translate(-12.92 23.61) rotate(-8.56)"/>
        <ellipse class="cls-4" cx="155.76" cy="87.24" rx="2.59" ry="1.45" transform="translate(-11.25 24.14) rotate(-8.56)"/>
        <ellipse class="cls-4" cx="153.92" cy="67.49" rx="2.59" ry="1.45" transform="translate(-8.33 23.65) rotate(-8.56)"/>
        <ellipse class="cls-4" cx="145.88" cy="79.02" rx="3.46" ry="1.94" transform="translate(-10.13 22.58) rotate(-8.56)"/>
        <ellipse class="cls-4" cx="139.04" cy="66" rx="3.46" ry="1.94" transform="translate(-8.27 21.42) rotate(-8.56)"/>
        <ellipse class="cls-4" cx="145.59" cy="56.48" rx="3.46" ry="1.94" transform="translate(-6.78 22.29) rotate(-8.56)"/>
        <ellipse class="cls-4" cx="130.44" cy="55.82" rx="1.94" ry="3.46" transform="translate(61.52 179.83) rotate(-84.1)"/>
        <ellipse class="cls-4" cx="138.5" cy="47.19" rx="1.94" ry="3.46" transform="translate(77.33 180.11) rotate(-84.1)"/>
      </g>
      <g>
        <path class="cls-1" d="M157.16,44.45c5.3,3.38,7.95,10.04,7.95,10.04,7.07-6.66,5.88-17.61,5.88-17.61,0,0-6.26-1.51-13.83,5.55,0,0-1.09,1.33,0,2.02Z"/>
        <path class="cls-1" d="M103.04,66.43s-10.28,6.75-.46,23.48c0,0,3.45,5.26,12.97,10.94,0,0,13.23,9.41,17.01,19.6,0,0,8.54,7.84,19.98,4.66,0,0,5.5-1.4,4.7-5.18l-5.8-.36s-14.27-5.92-18.03-23.42c0,0-.46-19.78-10.27-23.55,0,0-7.19-5.82-6.96-12.78,0,0,2.85-12.55-8.22-19.52l-11.18-5.02s-2.97-1.14-3.31,3.08v11.28s.54,10.33,9.58,16.78Z"/>
      </g>
      <path class="cls-3" d="M109.22,58.5c.47,1.21,2.31.28,2.31.28v-3.61c-3.76-4.53-12.36-11.12-12.36-11.12,0,0-1.1,1.78.85,4.12l8.44,7.61.76,2.72Z"/>
      <path class="cls-3" d="M114.93,85.03s-.43,11.36,10.81,10.89c1.42-.06,1.24-1.69,1.1-2.37-.04-.18-.16-.33-.33-.42-6.33-3.16-8.56-7.21-9.18-8.67-.15-.35-.52-.53-.89-.46-.65.13-1.53.42-1.51,1.02Z"/>
    </g>
  </g>
</svg>