<?xml version="1.0" encoding="UTF-8"?>
<svg id="Layer_2" data-name="Layer 2" xmlns="http://www.w3.org/2000/svg" viewBox="0 0 246.09 154.01">
  <defs>
    <style>
      .cls-1 {
        fill: #efe4cb;
      }

      .cls-2 {
        fill: #fff;
      }

      .cls-3 {
        fill: #c5a792;
      }

      .cls-4 {
        fill: #393031;
      }

      .cls-5 {
        fill: #f4c2da;
      }
    </style>
  </defs>
  <g id="Layer_2-2" data-name="Layer 2">
    <g>
      <path class="cls-4" d="M26.85,115.48S20.78,127.7.06,134.49c0,0-1.25,3.72,7.7,5.74,0,0,26.89,6.78,41.85-7.96v12.07s2.54,8.3,13.32,9.39c0,0,16.01,1.71,26.57-3.34l10.66-.41s8.13-2.18,4.6-7.3c0,0-3.24-2.65-4.77-4.42l-.12-2.18s20.77.67,25.15-1.67v8.08s1.06,6.59,9.3,8.5c0,0,12.38,3.23,23.58-.2,0,0,3.49-1.38,4.02-1.98,0,0,11.46,2.11,19.62-.92,0,0,6.32-2.44,2.37-9.35,0,0-1.65-1.84-7.18-5.99l.2-8.23,4.48-10.27s18.49,8.35,34.4,6.36c0,0,26.74.2,29.92-14.71,0,0,1.79-5.32-2.49-13.05l-6.01-13.41s-5.33-27.19-15.51-36.84l.95-4.25s3.56-13.31-2.22-22.76c0,0-8.83-1.54-17.7,15.69l-6.3-.4s-2.5-.69-5.4-5.44c0,0-29.08-36.92-96.14-21.45,0,0-56.37,11.21-70.12,75.7,0,0-2.5,17.7,1.39,32.29,0,0,.88,1.49.68,3.71Z"/>
      <path class="cls-3" d="M68.94,110.57c3.38,5.64,0,7.89,0,7.89-1.35,3.53-15.89,4.36-15.89,4.36-20.56,2.34-23.26-15.45-23.26-15.45-10.59-39.93,21.32-71.44,21.32-71.44,0,0-5.88,36.41,11.51,64.44l6.32,10.2Z"/>
      <path class="cls-3" d="M172.63,39.39c2.61-5,16.39-8.79,16.39-8.79,0,0-11.58-20.29-40.74-23.2,0,0-28.49,2.42-37.51,44.77,0,0-4.42,24.13-1.44,48.31,0,0,.38,10.48,3.98,12.27,11.89,5.89,31.98,4.79,31.98,4.79,15.42-1.07,20.86-15.1,20.86-15.1,0,0-6.5-9.81-8.31-17.67,0,0-1.69-8.21-.32-16.21,0,0,1.66-3.92-6.26-7.26,0,0-10.4-7.92-10.9-22.66,0,0-.75-3.96,4.33-4.7,0,0,18.11-.95,26.32,6l.97.62.67-1.17Z"/>
      <path class="cls-1" d="M160.75,81.44c7.94,35.29,48.96,35.29,48.96,35.29-.33-1.05-1.95-1.66-1.95-1.66-3.78-2.43-6.24-7.33-6.24-7.33l-2.9-.02c-1.94-.39-1-1.91-1-1.91l3.43-.71,1.97-2.03c2.34-1.78,2.67-.24,2.67-.24-.2,1.33-1.23,3.15-1.23,3.15,2.84,6.72,11.64,9.84,11.64,9.84l8.37-.37c23.54-2.27,15.5-22.08,15.5-22.08-2.34,10.92-15.01,7.51-15.01,7.51-13.57-3.65-19.36-20.62-19.36-20.62-3.31-17.19-19.45-15.44-19.45-15.44-5.78-1.08-11.02-10.41-11.02-10.41-4.32-20.82-29.91-16.19-29.91-16.19-4.36,19.34,19.61,26.22,19.61,26.22,0,0-6.38,6.67-4.06,17Z"/>
      <circle class="cls-4" cx="186.67" cy="82.09" r="10.56"/>
      <path class="cls-2" d="M186.67,74.46v15.26s-7.5.37-7.78-7.64c0,0-.62-7.44,7.78-7.63Z"/>
      <path class="cls-3" d="M81.06,111.96c2.15,7.67-5.8,2.98-5.8,2.98-15.68-16.39-22.37-48.85-22.37-48.85-2.22-17.96,3.67-34.52,3.67-34.52.85-3.95,12.12-12.12,12.12-12.12,0,0-6.05,25.99-4.1,42.84,0,0,2.47,21.27,9.62,36.98l6.85,12.69Z"/>
      <path class="cls-3" d="M79.79,36.42c-2.96,20.95.5,40.24.5,40.24,2.69,19.1,9.84,34.3,9.84,34.3.11,7.39-6,1.96-6,1.96-14.15-20.86-16.53-48.64-16.53-48.64-1.27-23.26,4.17-40.15,4.17-40.15,2.07-10.81,17.09-13.8,17.09-13.8,0,0-8.3,14.63-8.57,21.69l-.51,4.41Z"/>
      <path class="cls-3" d="M98.9,110.16c-1.21,10.74-8.76-2.35-8.76-2.35-23.75-65.86,3.4-97.1,3.4-97.1,7.64-7.84,22.05-5.88,22.05-5.88,0,0-18.5,22.22-18.61,29.49,0,0-8.44,35.15-1.54,63.21l3.47,12.62Z"/>
      <path class="cls-3" d="M138.51,5.59s-44.63,19.73-29.88,103.5c0,0-.3,7.68-5.7,3.35,0,0-18.07-38.52,0-83.4,0,0,6.67-17.31,21.42-24.42,0,0,9.93-.99,14.16.97Z"/>
      <path class="cls-1" d="M6.12,135.33c13.97-1.71,24.56-16.58,24.56-16.58,0,0,4.73,7.68,17.18,7.89,0,0-7.29,16.74-40.45,10.09l-2.96-1.1,1.67-.3Z"/>
      <path class="cls-1" d="M54.43,126.92l-.79,15.24s-.33,14.07,30.59,6.49c0,0,4.01-3.21-1.85-5.72-8.25-3.54-2.36-17.51-2.36-17.51,0,0,2.36-1.12,2.3,1.07,0,0-.27,4.2,1.6,4.53,0,0,15.4,3.7,29.59,2.07,0,0,7.18-.14,11.14-1.68,0,0,1.85-.79,1.81-2.26,0,0,1.81-1.92,2.3-.11l.31,12.95s2.86,6.23,11.26,6.28c0,0,12.62,1.95,18.72-2.02,0,0,3.66-3.53-2.62-5.38,0,0-5.73-2.45-6.03-5.08l1.43-9.72s1.62-2.22,4.67-2.7c0,0,7.65-1.22,9.7-2.78,0,0,.84,1.11.23,2.17,0,0-5.63,3.51-9.31,4.01,0,0-2.79,1.28-2.17,8.75,0,0,8.92,3.28,10.39,9.81,0,0,8.1,1.14,13.57-.26,0,0,4.63-2.33,0-6.11,0,0-5.84-2.66-6.02-5.89l.12-7.99,4.57-10.31.3-3.35-7.62-5.43s-11.06,14.92-26.73,15.34c0,0-24.04-1.38-32.19-3.92,0,0-25.53-2.33-40.88,6.35,0,0-13,3.79-16.02,3.17Z"/>
      <path class="cls-1" d="M82.06,133.28v6.29s6.99,4.04,7.23,7.09h9.67s4.98-2.72.33-5.49l-3.33-2.63-.05-3.14-13.85-2.11Z"/>
      <path class="cls-3" d="M172.63,42.73s6.47,8.4,7.33,12.89c0,0,3.74,5.11,9.27,5.74,0,0,14.99-1.05,18.43,13.5,0,0,4.3,16.06,15.1,21.33,0,0,11.1,3.77,13.36-2.6,0,0,1.58-6.17-3.35-15.49,0,0-6.54-28.09-15.22-34.42,0,0-12.29-13.46-32.91-7.69,0,0-8.87,2.6-12,6.75Z"/>
      <path class="cls-1" d="M205.8,31.85s8.89,1.32,13.01,7.28c0,0,4.61-6.73.11-20.35,0,0-8.16,2.12-13.12,13.06Z"/>
      <path class="cls-4" d="M163.46,52.6c-.35-.33-2.77-1-2.77-1-5.82-.9-9.44-5.85-9.44-5.85,0,0,.24-.93,1.35-.84,0,0,4.85,2.78,10.82,4.14,0,0,6.37,1.68,6.23,7.3,0,0-1.27,1.48-3.07-1.33,0,0-1.68-2.61-4.66-2.72"/>
      <ellipse class="cls-5" cx="222.08" cy="81.06" rx="3.04" ry="1.45" transform="translate(-9.59 33.94) rotate(-8.56)"/>
      <ellipse class="cls-5" cx="222.08" cy="70.23" rx="3.07" ry="1.63" transform="translate(-9.99 90.07) rotate(-22.43)"/>
      <ellipse class="cls-5" cx="211.54" cy="61.21" rx="3.07" ry="1.63" transform="translate(-7.35 85.36) rotate(-22.43)"/>
      <ellipse class="cls-5" cx="215.56" cy="51.45" rx="3.07" ry="1.63" transform="translate(-3.32 86.16) rotate(-22.43)"/>
      <ellipse class="cls-5" cx="200.84" cy="53.72" rx="3.45" ry="2.05" transform="translate(-6.28 71.78) rotate(-19.96)"/>
      <ellipse class="cls-5" cx="206.81" cy="44.68" rx="3.15" ry="1.87" transform="translate(-2.83 73.28) rotate(-19.96)"/>
      <ellipse class="cls-5" cx="189.13" cy="47.8" rx="3.69" ry="2.59"/>
      <ellipse class="cls-5" cx="195.84" cy="39.13" rx="1.97" ry="1.38" transform="translate(-1.7 9.73) rotate(-2.83)"/>
      <g>
        <ellipse class="cls-5" cx="55.3" cy="109.09" rx="1.45" ry="3.33" transform="translate(-41.45 34.27) rotate(-25.4)"/>
        <ellipse class="cls-5" cx="49.82" cy="95.6" rx="1.45" ry="3.33" transform="translate(-15.29 9.68) rotate(-9.63)"/>
        <path class="cls-5" d="M45.7,80.32c0,1.84-.65,3.33-1.45,3.33s-1.45-1.49-1.45-3.33.65-3.33,1.45-3.33,1.45,1.49,1.45,3.33Z"/>
        <path class="cls-5" d="M37.91,75.35c0,1.85-.65,3.34-1.46,3.34s-1.46-1.5-1.46-3.34.65-3.34,1.46-3.34,1.46,1.5,1.46,3.34Z"/>
        <path class="cls-5" d="M42.8,63.1c0,1.85-.65,3.34-1.46,3.34s-1.46-1.5-1.46-3.34.65-3.34,1.46-3.34,1.46,1.5,1.46,3.34Z"/>
        <ellipse class="cls-5" cx="39.35" cy="91.93" rx="1.45" ry="3.33" transform="translate(-14.82 7.88) rotate(-9.63)"/>
        <ellipse class="cls-5" cx="44.25" cy="105.31" rx="1.45" ry="2.48" transform="translate(-16.99 8.89) rotate(-9.63)"/>
        <ellipse class="cls-5" cx="35.7" cy="103.99" rx="1.45" ry="2.48" transform="translate(-8.3 3.23) rotate(-4.64)"/>
      </g>
      <g>
        <ellipse class="cls-5" cx="151.93" cy="102.64" rx="1.45" ry="3.33" transform="translate(-22.2 45.21) rotate(-15.79)"/>
        <ellipse class="cls-5" cx="120.2" cy="102.64" rx="1.45" ry="3.33" transform="translate(-23.39 36.58) rotate(-15.79)"/>
        <ellipse class="cls-5" cx="134.2" cy="105.87" rx="1.45" ry="3.33" transform="translate(-23.74 40.51) rotate(-15.79)"/>
        <ellipse class="cls-5" cx="149.32" cy="83.54" rx="1.45" ry="3.33" transform="translate(-17.1 43.78) rotate(-15.79)"/>
        <ellipse class="cls-5" cx="146" cy="71.2" rx="3.33" ry="1.45" transform="translate(28.59 183.45) rotate(-69.71)"/>
        <ellipse class="cls-5" cx="123.04" cy="79.48" rx="1.45" ry="3.33" transform="translate(-13.08 25.38) rotate(-11.19)"/>
        <ellipse class="cls-5" cx="135.8" cy="59.51" rx="3.33" ry="1.45" transform="translate(54.36 183.41) rotate(-80.35)"/>
        <ellipse class="cls-5" cx="131.62" cy="42.75" rx="3.48" ry="1.52" transform="translate(28.79 135.36) rotate(-60)"/>
        <ellipse class="cls-5" cx="132.33" cy="29.44" rx="3.48" ry="1.52" transform="translate(17.94 102.19) rotate(-45)"/>
        <ellipse class="cls-5" cx="148.45" cy="25.48" rx="2.37" ry="1.49" transform="translate(25.46 112.43) rotate(-45)"/>
        <ellipse class="cls-5" cx="158.84" cy="17.67" rx="2.75" ry="1.72" transform="translate(5.32 62.1) rotate(-22.49)"/>
        <ellipse class="cls-5" cx="165.99" cy="25.48" rx="3.14" ry="1.97" transform="translate(2.88 65.43) rotate(-22.49)"/>
        <ellipse class="cls-5" cx="115.58" cy="88.95" rx="1.45" ry="3.33" transform="translate(-19.84 34.8) rotate(-15.79)"/>
        <ellipse class="cls-5" cx="130.17" cy="88.95" rx="2.08" ry="3.52" transform="translate(-19.29 38.77) rotate(-15.79)"/>
        <ellipse class="cls-5" cx="140.81" cy="92.53" rx="1.78" ry="4.09" transform="translate(-19.86 41.8) rotate(-15.79)"/>
        <ellipse class="cls-5" cx="134.98" cy="74.98" rx="4.09" ry="1.78" transform="translate(53.01 205.83) rotate(-86.98)"/>
        <ellipse class="cls-5" cx="123.04" cy="63.08" rx="4.09" ry="1.78" transform="translate(34.5 169.28) rotate(-77.32)"/>
        <ellipse class="cls-5" cx="120.69" cy="49.59" rx="4.09" ry="1.78" transform="translate(17.39 129.31) rotate(-60)"/>
        <ellipse class="cls-5" cx="143.85" cy="17" rx="4.44" ry="1.94" transform="translate(20.33 92.66) rotate(-38.23)"/>
      </g>
    </g>
  </g>
</svg>